<svg width="32" height="38" viewBox="0 0 32 38" fill="none" xmlns="http://www.w3.org/2000/svg">
<g clip-path="url(#clip0_2915_1055)">
<path d="M16 0C20.3736 0 24.3343 1.75796 27.2008 4.59877C30.0673 7.43883 31.8404 11.364 31.8404 15.6983C31.8404 20.0327 30.0673 23.9579 27.2008 26.7987C24.3343 29.6395 20.3736 31.3967 16 31.3967C11.6272 31.3967 7.6658 29.6395 4.80004 26.7987C1.93353 23.9579 0.159668 20.0327 0.159668 15.6983C0.159668 11.364 1.93353 7.43883 4.80004 4.59877C7.6658 1.75796 11.6265 0 16 0Z" fill="#4D4D4D"/>
<path d="M16.0008 1.20093C20.0386 1.20093 23.6973 2.82372 26.3442 5.44692L26.4116 5.5197C29.0173 8.13696 30.6286 11.7331 30.6286 15.6983C30.6286 19.7015 28.9904 23.3266 26.3434 25.949L26.27 26.0166C23.6268 28.6004 19.9981 30.1957 16.0008 30.1957C11.9659 30.1957 8.30802 28.5715 5.66034 25.946C3.01116 23.3266 1.37219 19.7015 1.37219 15.6983C1.37219 11.6952 3.00966 8.07012 5.6566 5.44692C8.30353 2.82372 11.9614 1.20093 16.0008 1.20093Z" fill="white"/>
<path d="M16.0008 2.42786C23.396 2.42786 29.3906 8.36942 29.3906 15.6983C29.3906 23.0272 23.396 28.9696 16.0008 28.9696C8.6048 28.9696 2.61023 23.0272 2.61023 15.6983C2.61023 8.36942 8.6048 2.42786 16.0008 2.42786Z" fill="black"/>
<path d="M28.5969 11.1895H3.40386C2.89051 12.5976 2.61023 14.1149 2.61023 15.6984C2.61023 23.0273 8.6048 28.9696 16.0008 28.9696C23.396 28.9696 29.3906 23.0273 29.3906 15.6984C29.3906 14.1149 29.1103 12.5976 28.5969 11.1895Z" fill="#DD0000"/>
<path d="M28.5969 20.2087H3.40381C5.26685 25.3177 10.2032 28.9696 16.0007 28.9696C21.7974 28.9696 26.7346 25.3177 28.5969 20.2087Z" fill="#FFCE00"/>
<path d="M3.54773 24.1249H28.4523C29.5539 24.1249 30.3206 25.0073 30.4674 26.122L32 36.0029C32 37.0946 31.0865 38 29.9841 38H2.01518C0.909789 38 0 37.0983 0 36.0029L1.53255 26.122C1.78436 24.9597 2.4963 24.1257 3.54773 24.1249Z" fill="#4D4D4D"/>
<path fill-rule="evenodd" clip-rule="evenodd" d="M3.40612 24.9338H28.5947C29.1762 24.9338 29.5682 25.4225 29.6529 25.9825L31.1854 36.1433C31.2694 36.704 30.6991 37.192 30.1272 37.192H1.87432C1.30252 37.192 0.729963 36.7137 0.816146 36.1433L2.34795 25.9825C2.43413 25.4113 2.82383 24.9338 3.40612 24.9338Z" fill="white"/>
<path d="M3.68721 29.9581H4.57114V30.2856H3.68721V29.9581ZM3.71868 30.7067H4.71803V31.0447H3.29639V29.2251H4.68393V29.563H3.71868V30.7067Z" fill="url(#paint0_linear_2915_1055)"/>
<path d="M5.02727 31.0447V29.6462H5.43645V31.0447H5.02727ZM5.23186 29.4512C5.15667 29.4512 5.09546 29.4295 5.04825 29.3862C5.00104 29.3429 4.97743 29.2892 4.97743 29.2251C4.97743 29.1609 5.00104 29.1072 5.04825 29.0639C5.09546 29.0206 5.15667 28.9989 5.23186 28.9989C5.30705 28.9989 5.36825 29.0197 5.41546 29.0613C5.46268 29.1011 5.48628 29.1531 5.48628 29.2173C5.48628 29.2848 5.46268 29.3412 5.41546 29.3862C5.37 29.4295 5.3088 29.4512 5.23186 29.4512Z" fill="url(#paint1_linear_2915_1055)"/>
<path d="M6.67391 29.6254C6.78582 29.6254 6.88549 29.6479 6.97292 29.693C7.0621 29.7363 7.13205 29.8039 7.18276 29.8957C7.23347 29.9858 7.25883 30.1019 7.25883 30.244V31.0447H6.84964V30.3064C6.84964 30.1938 6.82429 30.1106 6.77358 30.0569C6.72462 30.0031 6.65467 29.9763 6.56374 29.9763C6.49904 29.9763 6.44046 29.9902 6.38801 30.0179C6.33729 30.0439 6.29708 30.0846 6.26735 30.1401C6.23937 30.1955 6.22538 30.2666 6.22538 30.3532V31.0447H5.8162V29.6462H6.20702V30.0335L6.13358 29.9165C6.18429 29.8229 6.25686 29.751 6.35128 29.7007C6.44571 29.6505 6.55325 29.6254 6.67391 29.6254Z" fill="url(#paint2_linear_2915_1055)"/>
<path d="M8.46383 31.0655C8.33967 31.0655 8.23301 31.0395 8.14382 30.9875C8.05464 30.9355 7.98645 30.8566 7.93923 30.7509C7.89202 30.6435 7.86842 30.5083 7.86842 30.3454C7.86842 30.1808 7.8929 30.0456 7.94186 29.9399C7.99257 29.8342 8.06251 29.7553 8.15169 29.7033C8.24087 29.6514 8.34492 29.6254 8.46383 29.6254C8.59672 29.6254 8.71563 29.6548 8.82055 29.7137C8.92721 29.7727 9.01115 29.8558 9.07235 29.9633C9.1353 30.0707 9.16678 30.1981 9.16678 30.3454C9.16678 30.491 9.1353 30.6175 9.07235 30.7249C9.01115 30.8324 8.92721 30.9164 8.82055 30.9771C8.71563 31.036 8.59672 31.0655 8.46383 31.0655ZM7.62973 31.0447V29.1159H8.03891V29.9295L8.01268 30.3428L8.02055 30.7587V31.0447H7.62973ZM8.39301 30.7327C8.4612 30.7327 8.52153 30.7171 8.57399 30.6859C8.6282 30.6547 8.67104 30.6106 8.70251 30.5534C8.73574 30.4944 8.75235 30.4251 8.75235 30.3454C8.75235 30.264 8.73574 30.1946 8.70251 30.1375C8.67104 30.0803 8.6282 30.0361 8.57399 30.0049C8.52153 29.9737 8.4612 29.9581 8.39301 29.9581C8.32481 29.9581 8.26361 29.9737 8.2094 30.0049C8.15519 30.0361 8.11235 30.0803 8.08087 30.1375C8.0494 30.1946 8.03366 30.264 8.03366 30.3454C8.03366 30.4251 8.0494 30.4944 8.08087 30.5534C8.11235 30.6106 8.15519 30.6547 8.2094 30.6859C8.26361 30.7171 8.32481 30.7327 8.39301 30.7327Z" fill="url(#paint3_linear_2915_1055)"/>
<path d="M10.0361 31.0655C9.91894 31.0655 9.81402 31.0429 9.72135 30.9979C9.63042 30.9528 9.5596 30.8844 9.50889 30.7925C9.45818 30.6989 9.43282 30.5802 9.43282 30.4364V29.6462H9.842V30.3766C9.842 30.4927 9.86648 30.5785 9.91544 30.6339C9.96615 30.6877 10.037 30.7145 10.1279 30.7145C10.1909 30.7145 10.2468 30.7015 10.2958 30.6755C10.3447 30.6478 10.3832 30.6062 10.4112 30.5508C10.4392 30.4936 10.4531 30.4225 10.4531 30.3376V29.6462H10.8623V31.0447H10.4741V30.6599L10.545 30.7717C10.4977 30.8688 10.4278 30.9424 10.3351 30.9927C10.2442 31.0412 10.1445 31.0655 10.0361 31.0655ZM10.4112 29.4538C10.3605 29.4538 10.3176 29.4373 10.2827 29.4044C10.2477 29.3715 10.2302 29.3282 10.2302 29.2744C10.2302 29.2207 10.2477 29.1774 10.2827 29.1445C10.3176 29.1115 10.3605 29.0951 10.4112 29.0951C10.4619 29.0951 10.5047 29.1115 10.5397 29.1445C10.5764 29.1774 10.5948 29.2207 10.5948 29.2744C10.5948 29.3282 10.5764 29.3715 10.5397 29.4044C10.5047 29.4373 10.4619 29.4538 10.4112 29.4538ZM9.88135 29.4538C9.83064 29.4538 9.78692 29.4373 9.7502 29.4044C9.71523 29.3715 9.69774 29.3282 9.69774 29.2744C9.69774 29.2207 9.71523 29.1774 9.7502 29.1445C9.78692 29.1115 9.83064 29.0951 9.88135 29.0951C9.93206 29.0951 9.9749 29.1115 10.0099 29.1445C10.0448 29.1774 10.0623 29.2207 10.0623 29.2744C10.0623 29.3282 10.0448 29.3715 10.0099 29.4044C9.9749 29.4373 9.93206 29.4538 9.88135 29.4538Z" fill="url(#paint4_linear_2915_1055)"/>
<path d="M11.2414 31.0447V29.6462H11.6322V30.0413L11.5771 29.9269C11.6191 29.8281 11.6864 29.7536 11.7791 29.7033C11.8718 29.6514 11.9846 29.6254 12.1175 29.6254V29.9997C12.1 29.998 12.0842 29.9971 12.0703 29.9971C12.0563 29.9954 12.0414 29.9945 12.0257 29.9945C11.9138 29.9945 11.8228 30.0265 11.7529 30.0907C11.6847 30.153 11.6506 30.251 11.6506 30.3844V31.0447H11.2414Z" fill="url(#paint5_linear_2915_1055)"/>
<path d="M13.0141 31.5697C12.8812 31.5697 12.7527 31.5533 12.6286 31.5204C12.5062 31.4892 12.4039 31.4415 12.3217 31.3774L12.4843 31.0862C12.5437 31.1348 12.6189 31.1729 12.7099 31.2006C12.8025 31.2301 12.8935 31.2448 12.9827 31.2448C13.1278 31.2448 13.2327 31.2128 13.2974 31.1486C13.3639 31.0845 13.3971 30.9892 13.3971 30.8627V30.6521L13.4233 30.3012L13.4181 29.9477V29.6462H13.8063V30.8107C13.8063 31.0706 13.7381 31.2621 13.6017 31.3852C13.4653 31.5082 13.2694 31.5697 13.0141 31.5697ZM12.9512 30.9771C12.82 30.9771 12.7011 30.9493 12.5945 30.8939C12.4895 30.8367 12.4047 30.7579 12.34 30.6573C12.2771 30.5551 12.2456 30.4364 12.2456 30.3012C12.2456 30.1643 12.2771 30.0456 12.34 29.9451C12.4047 29.8429 12.4895 29.764 12.5945 29.7085C12.7011 29.6531 12.82 29.6254 12.9512 29.6254C13.0701 29.6254 13.175 29.6496 13.2659 29.6981C13.3569 29.7449 13.4277 29.8186 13.4784 29.9191C13.5291 30.0179 13.5545 30.1453 13.5545 30.3012C13.5545 30.4555 13.5291 30.5828 13.4784 30.6833C13.4277 30.7821 13.3569 30.8558 13.2659 30.9043C13.175 30.9528 13.0701 30.9771 12.9512 30.9771ZM13.0325 30.6443C13.1042 30.6443 13.168 30.6305 13.224 30.6028C13.2799 30.5733 13.3236 30.5326 13.3551 30.4806C13.3866 30.4286 13.4023 30.3688 13.4023 30.3012C13.4023 30.2319 13.3866 30.1721 13.3551 30.1219C13.3236 30.0699 13.2799 30.03 13.224 30.0023C13.168 29.9728 13.1042 29.9581 13.0325 29.9581C12.9608 29.9581 12.897 29.9728 12.841 30.0023C12.7851 30.03 12.7405 30.0699 12.7072 30.1219C12.6758 30.1721 12.66 30.2319 12.66 30.3012C12.66 30.3688 12.6758 30.4286 12.7072 30.4806C12.7405 30.5326 12.7851 30.5733 12.841 30.6028C12.897 30.6305 12.9608 30.6443 13.0325 30.6443Z" fill="url(#paint6_linear_2915_1055)"/>
<path d="M14.8874 31.0655C14.7266 31.0655 14.5849 31.0343 14.4625 30.9719C14.3419 30.9095 14.2483 30.8246 14.1819 30.7171C14.1154 30.608 14.0822 30.484 14.0822 30.3454C14.0822 30.205 14.1145 30.0811 14.1792 29.9737C14.2457 29.8645 14.3357 29.7796 14.4494 29.7189C14.5631 29.6566 14.6916 29.6254 14.835 29.6254C14.9731 29.6254 15.0973 29.6548 15.2074 29.7137C15.3193 29.7709 15.4076 29.8541 15.4723 29.9633C15.537 30.0707 15.5694 30.1998 15.5694 30.3506C15.5694 30.3662 15.5685 30.3844 15.5668 30.4052C15.565 30.4243 15.5633 30.4425 15.5615 30.4598H14.4153V30.2232H15.3464L15.1891 30.2934C15.1891 30.2206 15.1742 30.1574 15.1445 30.1037C15.1148 30.0499 15.0737 30.0083 15.0212 29.9789C14.9687 29.9477 14.9075 29.9321 14.8376 29.9321C14.7676 29.9321 14.7056 29.9477 14.6514 29.9789C14.5989 30.0083 14.5578 30.0508 14.5281 30.1063C14.4984 30.16 14.4835 30.2241 14.4835 30.2986V30.361C14.4835 30.4373 14.5001 30.5048 14.5333 30.5638C14.5683 30.6209 14.6164 30.6651 14.6776 30.6963C14.7405 30.7258 14.814 30.7405 14.8979 30.7405C14.9731 30.7405 15.0387 30.7293 15.0946 30.7067C15.1523 30.6842 15.2048 30.6504 15.252 30.6054L15.4697 30.8393C15.405 30.9121 15.3237 30.9684 15.2258 31.0083C15.1279 31.0464 15.0151 31.0655 14.8874 31.0655Z" fill="url(#paint7_linear_2915_1055)"/>
<path d="M15.8418 31.0447V29.6462H16.2326V30.0413L16.1776 29.9269C16.2195 29.8281 16.2868 29.7536 16.3795 29.7033C16.4722 29.6514 16.585 29.6254 16.7179 29.6254V29.9997C16.7004 29.998 16.6847 29.9971 16.6707 29.9971C16.6567 29.9954 16.6418 29.9945 16.6261 29.9945C16.5142 29.9945 16.4232 30.0265 16.3533 30.0907C16.2851 30.153 16.251 30.251 16.251 30.3844V31.0447H15.8418Z" fill="url(#paint8_linear_2915_1055)"/>
<path d="M17.5668 31.0655C17.4497 31.0655 17.3448 31.0429 17.2521 30.9979C17.1612 30.9528 17.0903 30.8844 17.0396 30.7925C16.9889 30.6989 16.9636 30.5802 16.9636 30.4364V29.6462H17.3727V30.3766C17.3727 30.4927 17.3972 30.5785 17.4462 30.6339C17.4969 30.6877 17.5677 30.7145 17.6586 30.7145C17.7216 30.7145 17.7775 30.7015 17.8265 30.6755C17.8755 30.6478 17.9139 30.6062 17.9419 30.5508C17.9699 30.4936 17.9839 30.4225 17.9839 30.3376V29.6462H18.3931V31.0447H18.0049V30.6599L18.0757 30.7717C18.0285 30.8688 17.9585 30.9424 17.8659 30.9927C17.7749 31.0412 17.6753 31.0655 17.5668 31.0655Z" fill="url(#paint9_linear_2915_1055)"/>
<path d="M19.6298 29.6254C19.7418 29.6254 19.8414 29.6479 19.9289 29.693C20.018 29.7363 20.088 29.8039 20.1387 29.8957C20.1894 29.9858 20.2148 30.1019 20.2148 30.244V31.0447H19.8056V30.3064C19.8056 30.1938 19.7802 30.1106 19.7295 30.0569C19.6806 30.0031 19.6106 29.9763 19.5197 29.9763C19.455 29.9763 19.3964 29.9902 19.3439 30.0179C19.2932 30.0439 19.253 30.0846 19.2233 30.1401C19.1953 30.1955 19.1813 30.2666 19.1813 30.3532V31.0447H18.7721V29.6462H19.163V30.0335L19.0895 29.9165C19.1402 29.8229 19.2128 29.751 19.3072 29.7007C19.4017 29.6505 19.5092 29.6254 19.6298 29.6254Z" fill="url(#paint10_linear_2915_1055)"/>
<path d="M21.2595 31.5697C21.1266 31.5697 20.9981 31.5533 20.8739 31.5204C20.7515 31.4892 20.6492 31.4415 20.5671 31.3774L20.7297 31.0862C20.7891 31.1348 20.8643 31.1729 20.9553 31.2006C21.0479 31.2301 21.1389 31.2448 21.228 31.2448C21.3732 31.2448 21.4781 31.2128 21.5428 31.1486C21.6092 31.0845 21.6425 30.9892 21.6425 30.8627V30.6521L21.6687 30.3012L21.6635 29.9477V29.6462H22.0517V30.8107C22.0517 31.0706 21.9835 31.2621 21.8471 31.3852C21.7107 31.5082 21.5148 31.5697 21.2595 31.5697ZM21.1966 30.9771C21.0654 30.9771 20.9465 30.9493 20.8398 30.8939C20.7349 30.8367 20.6501 30.7579 20.5854 30.6573C20.5225 30.5551 20.491 30.4364 20.491 30.3012C20.491 30.1643 20.5225 30.0456 20.5854 29.9451C20.6501 29.8429 20.7349 29.764 20.8398 29.7085C20.9465 29.6531 21.0654 29.6254 21.1966 29.6254C21.3155 29.6254 21.4204 29.6496 21.5113 29.6981C21.6023 29.7449 21.6731 29.8186 21.7238 29.9191C21.7745 30.0179 21.7998 30.1453 21.7998 30.3012C21.7998 30.4555 21.7745 30.5828 21.7238 30.6833C21.6731 30.7821 21.6023 30.8558 21.5113 30.9043C21.4204 30.9528 21.3155 30.9771 21.1966 30.9771ZM21.2779 30.6443C21.3496 30.6443 21.4134 30.6305 21.4694 30.6028C21.5253 30.5733 21.569 30.5326 21.6005 30.4806C21.632 30.4286 21.6477 30.3688 21.6477 30.3012C21.6477 30.2319 21.632 30.1721 21.6005 30.1219C21.569 30.0699 21.5253 30.03 21.4694 30.0023C21.4134 29.9728 21.3496 29.9581 21.2779 29.9581C21.2062 29.9581 21.1424 29.9728 21.0864 30.0023C21.0305 30.03 20.9859 30.0699 20.9526 30.1219C20.9212 30.1721 20.9054 30.2319 20.9054 30.3012C20.9054 30.3688 20.9212 30.4286 20.9526 30.4806C20.9859 30.5326 21.0305 30.5733 21.0864 30.6028C21.1424 30.6305 21.2062 30.6443 21.2779 30.6443Z" fill="url(#paint11_linear_2915_1055)"/>
<path d="M22.9072 31.0655C22.7866 31.0655 22.6703 31.0516 22.5584 31.0239C22.4482 30.9944 22.3608 30.958 22.2961 30.9147L22.4325 30.6235C22.4972 30.6634 22.5733 30.6963 22.6607 30.7223C22.7499 30.7466 22.8373 30.7587 22.923 30.7587C23.0174 30.7587 23.0839 30.7475 23.1223 30.7249C23.1625 30.7024 23.1827 30.6712 23.1827 30.6313C23.1827 30.5984 23.1669 30.5742 23.1354 30.5586C23.1057 30.5412 23.0655 30.5282 23.0148 30.5196C22.9641 30.5109 22.9081 30.5022 22.8469 30.4936C22.7875 30.4849 22.7271 30.4736 22.6659 30.4598C22.6047 30.4442 22.5488 30.4217 22.4981 30.3922C22.4474 30.3627 22.4063 30.3229 22.3748 30.2726C22.3451 30.2224 22.3302 30.1574 22.3302 30.0777C22.3302 29.9893 22.3556 29.9113 22.4063 29.8437C22.4587 29.7761 22.5339 29.7233 22.6318 29.6852C22.7298 29.6453 22.8469 29.6254 22.9833 29.6254C23.0795 29.6254 23.1774 29.6358 23.2771 29.6566C23.3768 29.6774 23.4598 29.7077 23.5263 29.7475L23.3899 30.0361C23.3217 29.9962 23.2526 29.9694 23.1827 29.9555C23.1145 29.9399 23.048 29.9321 22.9833 29.9321C22.8924 29.9321 22.8259 29.9442 22.784 29.9685C22.742 29.9928 22.721 30.0239 22.721 30.0621C22.721 30.0967 22.7359 30.1227 22.7656 30.1401C22.7971 30.1574 22.8382 30.1712 22.8889 30.1816C22.9396 30.192 22.9947 30.2016 23.0541 30.2102C23.1153 30.2172 23.1765 30.2284 23.2377 30.244C23.2989 30.2596 23.354 30.2822 23.403 30.3116C23.4537 30.3393 23.4948 30.3783 23.5263 30.4286C23.5577 30.4771 23.5735 30.5412 23.5735 30.6209C23.5735 30.7076 23.5472 30.7847 23.4948 30.8523C23.4423 30.9181 23.3663 30.9701 23.2666 31.0083C23.1687 31.0464 23.0489 31.0655 22.9072 31.0655Z" fill="url(#paint12_linear_2915_1055)"/>
<path d="M24.403 31.0655C24.2369 31.0655 24.1075 31.0239 24.0148 30.9407C23.9221 30.8558 23.8758 30.7301 23.8758 30.5638V29.3368H24.285V30.5586C24.285 30.6175 24.3007 30.6634 24.3322 30.6963C24.3636 30.7275 24.4065 30.7431 24.4607 30.7431C24.5254 30.7431 24.5805 30.7258 24.6259 30.6911L24.7361 30.9771C24.6941 31.0065 24.6434 31.0291 24.584 31.0447C24.5263 31.0585 24.4659 31.0655 24.403 31.0655ZM23.6581 29.9893V29.6774H24.6364V29.9893H23.6581Z" fill="url(#paint13_linear_2915_1055)"/>
<path d="M25.6226 31.0655C25.4617 31.0655 25.3201 31.0343 25.1977 30.9719C25.077 30.9095 24.9834 30.8246 24.917 30.7171C24.8506 30.608 24.8173 30.484 24.8173 30.3454C24.8173 30.205 24.8497 30.0811 24.9144 29.9737C24.9808 29.8645 25.0709 29.7796 25.1845 29.7189C25.2982 29.6566 25.4267 29.6254 25.5701 29.6254C25.7083 29.6254 25.8324 29.6548 25.9426 29.7137C26.0545 29.7709 26.1428 29.8541 26.2075 29.9633C26.2722 30.0707 26.3045 30.1998 26.3045 30.3506C26.3045 30.3662 26.3037 30.3844 26.3019 30.4052C26.3002 30.4243 26.2984 30.4425 26.2967 30.4598H25.1504V30.2232H26.0816L25.9242 30.2934C25.9242 30.2206 25.9094 30.1574 25.8796 30.1037C25.8499 30.0499 25.8088 30.0083 25.7563 29.9789C25.7039 29.9477 25.6427 29.9321 25.5727 29.9321C25.5028 29.9321 25.4407 29.9477 25.3865 29.9789C25.334 30.0083 25.293 30.0508 25.2632 30.1063C25.2335 30.16 25.2186 30.2241 25.2186 30.2986V30.361C25.2186 30.4373 25.2353 30.5048 25.2685 30.5638C25.3034 30.6209 25.3515 30.6651 25.4127 30.6963C25.4757 30.7258 25.5491 30.7405 25.6331 30.7405C25.7083 30.7405 25.7738 30.7293 25.8298 30.7067C25.8875 30.6842 25.94 30.6504 25.9872 30.6054L26.2049 30.8393C26.1402 30.9121 26.0589 30.9684 25.9609 31.0083C25.863 31.0464 25.7502 31.0655 25.6226 31.0655Z" fill="url(#paint14_linear_2915_1055)"/>
<path d="M27.0517 31.0655C26.9311 31.0655 26.8148 31.0516 26.7029 31.0239C26.5927 30.9944 26.5053 30.958 26.4406 30.9147L26.577 30.6235C26.6417 30.6634 26.7177 30.6963 26.8052 30.7223C26.8943 30.7466 26.9818 30.7587 27.0675 30.7587C27.1619 30.7587 27.2283 30.7475 27.2668 30.7249C27.307 30.7024 27.3271 30.6712 27.3271 30.6313C27.3271 30.5984 27.3114 30.5742 27.2799 30.5586C27.2502 30.5412 27.21 30.5282 27.1593 30.5196C27.1085 30.5109 27.0526 30.5022 26.9914 30.4936C26.9319 30.4849 26.8716 30.4736 26.8104 30.4598C26.7492 30.4442 26.6932 30.4217 26.6425 30.3922C26.5918 30.3627 26.5507 30.3229 26.5193 30.2726C26.4895 30.2224 26.4747 30.1574 26.4747 30.0777C26.4747 29.9893 26.5 29.9113 26.5507 29.8437C26.6032 29.7761 26.6784 29.7233 26.7763 29.6852C26.8742 29.6453 26.9914 29.6254 27.1278 29.6254C27.224 29.6254 27.3219 29.6358 27.4216 29.6566C27.5212 29.6774 27.6043 29.7077 27.6707 29.7475L27.5343 30.0361C27.4661 29.9962 27.3971 29.9694 27.3271 29.9555C27.2589 29.9399 27.1925 29.9321 27.1278 29.9321C27.0368 29.9321 26.9704 29.9442 26.9284 29.9685C26.8865 29.9928 26.8655 30.0239 26.8655 30.0621C26.8655 30.0967 26.8803 30.1227 26.9101 30.1401C26.9415 30.1574 26.9826 30.1712 27.0334 30.1816C27.0841 30.192 27.1391 30.2016 27.1986 30.2102C27.2598 30.2172 27.321 30.2284 27.3822 30.244C27.4434 30.2596 27.4985 30.2822 27.5475 30.3116C27.5982 30.3393 27.6393 30.3783 27.6707 30.4286C27.7022 30.4771 27.7179 30.5412 27.7179 30.6209C27.7179 30.7076 27.6917 30.7847 27.6393 30.8523C27.5868 30.9181 27.5107 30.9701 27.4111 31.0083C27.3131 31.0464 27.1934 31.0655 27.0517 31.0655Z" fill="url(#paint15_linear_2915_1055)"/>
<path d="M28.5475 31.0655C28.3813 31.0655 28.2519 31.0239 28.1593 30.9407C28.0666 30.8558 28.0202 30.7301 28.0202 30.5638V29.3368H28.4294V30.5586C28.4294 30.6175 28.4452 30.6634 28.4766 30.6963C28.5081 30.7275 28.5509 30.7431 28.6052 30.7431C28.6699 30.7431 28.7249 30.7258 28.7704 30.6911L28.8806 30.9771C28.8386 31.0065 28.7879 31.0291 28.7284 31.0447C28.6707 31.0585 28.6104 31.0655 28.5475 31.0655ZM27.8025 29.9893V29.6774H28.7809V29.9893H27.8025Z" fill="url(#paint16_linear_2915_1055)"/>
<path d="M10.6004 34.2382V32.4186H11.3952C11.5596 32.4186 11.7012 32.4455 11.8201 32.4992C11.939 32.5512 12.0308 32.6266 12.0955 32.7254C12.1602 32.8242 12.1926 32.942 12.1926 33.0789C12.1926 33.2141 12.1602 33.331 12.0955 33.4298C12.0308 33.5286 11.939 33.6048 11.8201 33.6586C11.7012 33.7106 11.5596 33.7366 11.3952 33.7366H10.8365L11.0254 33.5468V34.2382H10.6004ZM11.0254 33.5936L10.8365 33.3934H11.3716C11.5027 33.3934 11.6007 33.3657 11.6654 33.3102C11.7301 33.2548 11.7624 33.1777 11.7624 33.0789C11.7624 32.9784 11.7301 32.9004 11.6654 32.8449C11.6007 32.7895 11.5027 32.7618 11.3716 32.7618H10.8365L11.0254 32.5616V33.5936Z" fill="url(#paint17_linear_2915_1055)"/>
<path d="M12.4645 34.2382V32.8397H12.8553V33.2349L12.8002 33.1205C12.8422 33.0217 12.9095 32.9472 13.0022 32.8969C13.0949 32.8449 13.2077 32.819 13.3406 32.819V33.1933C13.3231 33.1915 13.3074 33.1907 13.2934 33.1907C13.2794 33.1889 13.2645 33.1881 13.2488 33.1881C13.1369 33.1881 13.0459 33.2201 12.976 33.2843C12.9078 33.3466 12.8737 33.4446 12.8737 33.578V34.2382H12.4645Z" fill="url(#paint18_linear_2915_1055)"/>
<path d="M14.3572 34.2382V33.9653L14.331 33.9055V33.4168C14.331 33.3302 14.3039 33.2626 14.2497 33.2141C14.1972 33.1655 14.1159 33.1413 14.0058 33.1413C13.9306 33.1413 13.8563 33.1534 13.7828 33.1777C13.7111 33.2002 13.6499 33.2314 13.5992 33.2713L13.4523 32.9879C13.5293 32.9342 13.6219 32.8926 13.7304 32.8631C13.8388 32.8337 13.9489 32.819 14.0608 32.819C14.2759 32.819 14.4429 32.8692 14.5618 32.9697C14.6807 33.0702 14.7402 33.2271 14.7402 33.4402V34.2382H14.3572ZM13.9271 34.259C13.8169 34.259 13.7225 34.2408 13.6438 34.2045C13.5651 34.1663 13.5048 34.1152 13.4628 34.0511C13.4208 33.987 13.3999 33.915 13.3999 33.8353C13.3999 33.7522 13.42 33.6794 13.4602 33.617C13.5022 33.5546 13.5677 33.5061 13.6569 33.4714C13.7461 33.435 13.8624 33.4168 14.0058 33.4168H14.3808V33.6534H14.0504C13.9542 33.6534 13.8877 33.669 13.851 33.7002C13.816 33.7314 13.7985 33.7703 13.7985 33.8171C13.7985 33.8691 13.8187 33.9107 13.8589 33.9419C13.9008 33.9714 13.9577 33.9861 14.0294 33.9861C14.0976 33.9861 14.1588 33.9705 14.213 33.9393C14.2672 33.9064 14.3065 33.8587 14.331 33.7963L14.394 33.9835C14.3642 34.0736 14.31 34.1421 14.2313 34.1889C14.1526 34.2356 14.0512 34.259 13.9271 34.259Z" fill="url(#paint19_linear_2915_1055)"/>
<path d="M15.8027 34.259C15.6506 34.259 15.5151 34.2287 15.3962 34.1681C15.2773 34.1057 15.1837 34.0199 15.1155 33.9107C15.0491 33.8015 15.0158 33.6776 15.0158 33.539C15.0158 33.3986 15.0491 33.2747 15.1155 33.1673C15.1837 33.0581 15.2773 32.9732 15.3962 32.9125C15.5151 32.8501 15.6506 32.819 15.8027 32.819C15.9514 32.819 16.0808 32.8501 16.1909 32.9125C16.3011 32.9732 16.3824 33.0607 16.4349 33.1751L16.1175 33.344C16.0808 33.2782 16.0344 33.2297 15.9785 33.1985C15.9243 33.1673 15.8648 33.1517 15.8001 33.1517C15.7302 33.1517 15.6672 33.1673 15.6113 33.1985C15.5553 33.2297 15.5107 33.2739 15.4775 33.331C15.446 33.3882 15.4303 33.4575 15.4303 33.539C15.4303 33.6204 15.446 33.6898 15.4775 33.747C15.5107 33.8041 15.5553 33.8483 15.6113 33.8795C15.6672 33.9107 15.7302 33.9263 15.8001 33.9263C15.8648 33.9263 15.9243 33.9116 15.9785 33.8821C16.0344 33.8509 16.0808 33.8015 16.1175 33.734L16.4349 33.9055C16.3824 34.0182 16.3011 34.1057 16.1909 34.1681C16.0808 34.2287 15.9514 34.259 15.8027 34.259Z" fill="url(#paint20_linear_2915_1055)"/>
<path d="M17.268 34.259C17.1019 34.259 16.9725 34.2174 16.8798 34.1343C16.7871 34.0494 16.7408 33.9237 16.7408 33.7573V32.5304H17.15V33.7522C17.15 33.8111 17.1657 33.857 17.1972 33.8899C17.2287 33.9211 17.2715 33.9367 17.3257 33.9367C17.3904 33.9367 17.4455 33.9194 17.4909 33.8847L17.6011 34.1707C17.5591 34.2001 17.5084 34.2226 17.449 34.2382C17.3913 34.2521 17.3309 34.259 17.268 34.259ZM16.5231 33.1829V32.8709H17.5014V33.1829H16.5231Z" fill="url(#paint21_linear_2915_1055)"/>
<path d="M17.8308 34.2382V32.8397H18.24V34.2382H17.8308ZM18.0354 32.6448C17.9602 32.6448 17.899 32.6231 17.8518 32.5798C17.8046 32.5365 17.781 32.4828 17.781 32.4186C17.781 32.3545 17.8046 32.3008 17.8518 32.2575C17.899 32.2142 17.9602 32.1925 18.0354 32.1925C18.1106 32.1925 18.1718 32.2133 18.219 32.2549C18.2662 32.2947 18.2898 32.3467 18.2898 32.4108C18.2898 32.4784 18.2662 32.5347 18.219 32.5798C18.1735 32.6231 18.1123 32.6448 18.0354 32.6448Z" fill="url(#paint22_linear_2915_1055)"/>
<path d="M19.3017 34.259C19.1496 34.259 19.0141 34.2287 18.8951 34.1681C18.7762 34.1057 18.6827 34.0199 18.6145 33.9107C18.548 33.8015 18.5148 33.6776 18.5148 33.539C18.5148 33.3986 18.548 33.2747 18.6145 33.1673C18.6827 33.0581 18.7762 32.9732 18.8951 32.9125C19.0141 32.8501 19.1496 32.819 19.3017 32.819C19.4503 32.819 19.5797 32.8501 19.6899 32.9125C19.8001 32.9732 19.8814 33.0607 19.9338 33.1751L19.6165 33.344C19.5797 33.2782 19.5334 33.2297 19.4774 33.1985C19.4232 33.1673 19.3638 33.1517 19.2991 33.1517C19.2291 33.1517 19.1662 33.1673 19.1102 33.1985C19.0543 33.2297 19.0097 33.2739 18.9765 33.331C18.945 33.3882 18.9292 33.4575 18.9292 33.539C18.9292 33.6204 18.945 33.6898 18.9765 33.747C19.0097 33.8041 19.0543 33.8483 19.1102 33.8795C19.1662 33.9107 19.2291 33.9263 19.2991 33.9263C19.3638 33.9263 19.4232 33.9116 19.4774 33.8821C19.5334 33.8509 19.5797 33.8015 19.6165 33.734L19.9338 33.9055C19.8814 34.0182 19.8001 34.1057 19.6899 34.1681C19.5797 34.2287 19.4503 34.259 19.3017 34.259Z" fill="url(#paint23_linear_2915_1055)"/>
<path d="M20.8518 34.259C20.691 34.259 20.5493 34.2278 20.4269 34.1655C20.3063 34.1031 20.2127 34.0182 20.1463 33.9107C20.0798 33.8015 20.0466 33.6776 20.0466 33.539C20.0466 33.3986 20.0789 33.2747 20.1436 33.1673C20.2101 33.0581 20.3001 32.9732 20.4138 32.9125C20.5275 32.8501 20.656 32.819 20.7994 32.819C20.9375 32.819 21.0617 32.8484 21.1718 32.9073C21.2837 32.9645 21.372 33.0477 21.4367 33.1569C21.5014 33.2643 21.5338 33.3934 21.5338 33.5442C21.5338 33.5598 21.5329 33.578 21.5312 33.5988C21.5294 33.6178 21.5277 33.636 21.5259 33.6534H20.3797V33.4168H21.3108L21.1535 33.487C21.1535 33.4142 21.1386 33.351 21.1089 33.2973C21.0791 33.2435 21.0381 33.2019 20.9856 33.1725C20.9331 33.1413 20.8719 33.1257 20.802 33.1257C20.732 33.1257 20.67 33.1413 20.6158 33.1725C20.5633 33.2019 20.5222 33.2444 20.4925 33.2998C20.4628 33.3536 20.4479 33.4177 20.4479 33.4922V33.5546C20.4479 33.6308 20.4645 33.6984 20.4977 33.7573C20.5327 33.8145 20.5808 33.8587 20.642 33.8899C20.7049 33.9194 20.7784 33.9341 20.8623 33.9341C20.9375 33.9341 21.0031 33.9228 21.059 33.9003C21.1167 33.8778 21.1692 33.844 21.2164 33.7989L21.4341 34.0329C21.3694 34.1057 21.2881 34.162 21.1902 34.2019C21.0923 34.24 20.9795 34.259 20.8518 34.259Z" fill="url(#paint24_linear_2915_1055)"/>
</g>
<defs>
<linearGradient id="paint0_linear_2915_1055" x1="3.07264" y1="31.7131" x2="28.9274" y2="31.7131" gradientUnits="userSpaceOnUse">
<stop/>
<stop offset="0.495192" stop-color="#DD0000"/>
<stop offset="1" stop-color="#FFCE00"/>
</linearGradient>
<linearGradient id="paint1_linear_2915_1055" x1="3.07264" y1="31.7131" x2="28.9274" y2="31.7131" gradientUnits="userSpaceOnUse">
<stop/>
<stop offset="0.495192" stop-color="#DD0000"/>
<stop offset="1" stop-color="#FFCE00"/>
</linearGradient>
<linearGradient id="paint2_linear_2915_1055" x1="3.07264" y1="31.7131" x2="28.9274" y2="31.7131" gradientUnits="userSpaceOnUse">
<stop/>
<stop offset="0.495192" stop-color="#DD0000"/>
<stop offset="1" stop-color="#FFCE00"/>
</linearGradient>
<linearGradient id="paint3_linear_2915_1055" x1="3.07264" y1="31.7131" x2="28.9274" y2="31.7131" gradientUnits="userSpaceOnUse">
<stop/>
<stop offset="0.495192" stop-color="#DD0000"/>
<stop offset="1" stop-color="#FFCE00"/>
</linearGradient>
<linearGradient id="paint4_linear_2915_1055" x1="3.07264" y1="31.7131" x2="28.9274" y2="31.7131" gradientUnits="userSpaceOnUse">
<stop/>
<stop offset="0.495192" stop-color="#DD0000"/>
<stop offset="1" stop-color="#FFCE00"/>
</linearGradient>
<linearGradient id="paint5_linear_2915_1055" x1="3.07264" y1="31.7131" x2="28.9274" y2="31.7131" gradientUnits="userSpaceOnUse">
<stop/>
<stop offset="0.495192" stop-color="#DD0000"/>
<stop offset="1" stop-color="#FFCE00"/>
</linearGradient>
<linearGradient id="paint6_linear_2915_1055" x1="3.07264" y1="31.7131" x2="28.9274" y2="31.7131" gradientUnits="userSpaceOnUse">
<stop/>
<stop offset="0.495192" stop-color="#DD0000"/>
<stop offset="1" stop-color="#FFCE00"/>
</linearGradient>
<linearGradient id="paint7_linear_2915_1055" x1="3.07264" y1="31.7131" x2="28.9274" y2="31.7131" gradientUnits="userSpaceOnUse">
<stop/>
<stop offset="0.495192" stop-color="#DD0000"/>
<stop offset="1" stop-color="#FFCE00"/>
</linearGradient>
<linearGradient id="paint8_linear_2915_1055" x1="3.07264" y1="31.7131" x2="28.9274" y2="31.7131" gradientUnits="userSpaceOnUse">
<stop/>
<stop offset="0.495192" stop-color="#DD0000"/>
<stop offset="1" stop-color="#FFCE00"/>
</linearGradient>
<linearGradient id="paint9_linear_2915_1055" x1="3.07264" y1="31.7131" x2="28.9274" y2="31.7131" gradientUnits="userSpaceOnUse">
<stop/>
<stop offset="0.495192" stop-color="#DD0000"/>
<stop offset="1" stop-color="#FFCE00"/>
</linearGradient>
<linearGradient id="paint10_linear_2915_1055" x1="3.07264" y1="31.7131" x2="28.9274" y2="31.7131" gradientUnits="userSpaceOnUse">
<stop/>
<stop offset="0.495192" stop-color="#DD0000"/>
<stop offset="1" stop-color="#FFCE00"/>
</linearGradient>
<linearGradient id="paint11_linear_2915_1055" x1="3.07264" y1="31.7131" x2="28.9274" y2="31.7131" gradientUnits="userSpaceOnUse">
<stop/>
<stop offset="0.495192" stop-color="#DD0000"/>
<stop offset="1" stop-color="#FFCE00"/>
</linearGradient>
<linearGradient id="paint12_linear_2915_1055" x1="3.07264" y1="31.7131" x2="28.9274" y2="31.7131" gradientUnits="userSpaceOnUse">
<stop/>
<stop offset="0.495192" stop-color="#DD0000"/>
<stop offset="1" stop-color="#FFCE00"/>
</linearGradient>
<linearGradient id="paint13_linear_2915_1055" x1="3.07264" y1="31.7131" x2="28.9274" y2="31.7131" gradientUnits="userSpaceOnUse">
<stop/>
<stop offset="0.495192" stop-color="#DD0000"/>
<stop offset="1" stop-color="#FFCE00"/>
</linearGradient>
<linearGradient id="paint14_linear_2915_1055" x1="3.07264" y1="31.7131" x2="28.9274" y2="31.7131" gradientUnits="userSpaceOnUse">
<stop/>
<stop offset="0.495192" stop-color="#DD0000"/>
<stop offset="1" stop-color="#FFCE00"/>
</linearGradient>
<linearGradient id="paint15_linear_2915_1055" x1="3.07264" y1="31.7131" x2="28.9274" y2="31.7131" gradientUnits="userSpaceOnUse">
<stop/>
<stop offset="0.495192" stop-color="#DD0000"/>
<stop offset="1" stop-color="#FFCE00"/>
</linearGradient>
<linearGradient id="paint16_linear_2915_1055" x1="3.07264" y1="31.7131" x2="28.9274" y2="31.7131" gradientUnits="userSpaceOnUse">
<stop/>
<stop offset="0.495192" stop-color="#DD0000"/>
<stop offset="1" stop-color="#FFCE00"/>
</linearGradient>
<linearGradient id="paint17_linear_2915_1055" x1="3.07264" y1="31.7131" x2="28.9274" y2="31.7131" gradientUnits="userSpaceOnUse">
<stop/>
<stop offset="0.495192" stop-color="#DD0000"/>
<stop offset="1" stop-color="#FFCE00"/>
</linearGradient>
<linearGradient id="paint18_linear_2915_1055" x1="3.07264" y1="31.7131" x2="28.9274" y2="31.7131" gradientUnits="userSpaceOnUse">
<stop/>
<stop offset="0.495192" stop-color="#DD0000"/>
<stop offset="1" stop-color="#FFCE00"/>
</linearGradient>
<linearGradient id="paint19_linear_2915_1055" x1="3.07264" y1="31.7131" x2="28.9274" y2="31.7131" gradientUnits="userSpaceOnUse">
<stop/>
<stop offset="0.495192" stop-color="#DD0000"/>
<stop offset="1" stop-color="#FFCE00"/>
</linearGradient>
<linearGradient id="paint20_linear_2915_1055" x1="3.07264" y1="31.7131" x2="28.9274" y2="31.7131" gradientUnits="userSpaceOnUse">
<stop/>
<stop offset="0.495192" stop-color="#DD0000"/>
<stop offset="1" stop-color="#FFCE00"/>
</linearGradient>
<linearGradient id="paint21_linear_2915_1055" x1="3.07264" y1="31.7131" x2="28.9274" y2="31.7131" gradientUnits="userSpaceOnUse">
<stop/>
<stop offset="0.495192" stop-color="#DD0000"/>
<stop offset="1" stop-color="#FFCE00"/>
</linearGradient>
<linearGradient id="paint22_linear_2915_1055" x1="3.07264" y1="31.7131" x2="28.9274" y2="31.7131" gradientUnits="userSpaceOnUse">
<stop/>
<stop offset="0.495192" stop-color="#DD0000"/>
<stop offset="1" stop-color="#FFCE00"/>
</linearGradient>
<linearGradient id="paint23_linear_2915_1055" x1="3.07264" y1="31.7131" x2="28.9274" y2="31.7131" gradientUnits="userSpaceOnUse">
<stop/>
<stop offset="0.495192" stop-color="#DD0000"/>
<stop offset="1" stop-color="#FFCE00"/>
</linearGradient>
<linearGradient id="paint24_linear_2915_1055" x1="3.07264" y1="31.7131" x2="28.9274" y2="31.7131" gradientUnits="userSpaceOnUse">
<stop/>
<stop offset="0.495192" stop-color="#DD0000"/>
<stop offset="1" stop-color="#FFCE00"/>
</linearGradient>
<clipPath id="clip0_2915_1055">
<rect width="32" height="38" fill="white"/>
</clipPath>
</defs>
</svg>
